<?xml version="1.0" encoding="utf-8"?>
<svg xmlns="http://www.w3.org/2000/svg">
  <defs>
    <symbol id="facebook" fill="currentColor" viewBox="0 0 48 48">
      <path fill-rule="evenodd" d="M47 24.084C47 11.335 36.703 1 24 1S1 11.335 1 24.084c0 10.827 7.426 19.91 17.444 22.405V31.14H13.7v-7.055h4.743v-3.04c0-7.856 3.543-11.498 11.228-11.498 1.457 0 3.972.287 5 .573v6.395c-.543-.057-1.486-.086-2.657-.086-3.771 0-5.229 1.434-5.229 5.162v2.494H34.3l-1.29 7.055h-6.223V47C38.175 45.62 47 35.887 47 24.084Z"/>
    </symbol>
    <symbol id="line" fill="currentColor" viewBox="0 0 48 48">
      <path d="M24 2c13.234 0 24 8.737 24 19.477 0 4.297-1.666 8.168-5.145 11.983h.002C37.822 39.255 26.561 46.314 24 47.394c-2.561 1.078-2.184-.688-2.08-1.294.062-.362.344-2.055.344-2.055.08-.613.165-1.564-.078-2.17-.268-.668-1.333-1.015-2.114-1.184C8.54 39.167 0 31.104 0 21.477 0 10.737 10.767 2 24 2ZM8.331 16.287a.458.458 0 0 0-.458.458V27.22c0 .253.205.458.458.459h6.743a.459.459 0 0 0 .458-.46v-1.701a.46.46 0 0 0-.458-.458h-4.582v-8.314a.46.46 0 0 0-.458-.458H8.331Zm9.1 0a.459.459 0 0 0-.458.458V27.22c0 .253.206.458.459.458h1.702a.458.458 0 0 0 .458-.458V16.745a.458.458 0 0 0-.458-.458h-1.702Zm4.255 0a.458.458 0 0 0-.457.458V27.22c0 .253.205.458.457.458h1.703a.458.458 0 0 0 .458-.458V21l4.798 6.48a.465.465 0 0 0 .119.116l.005.003a.36.36 0 0 0 .028.017l.014.008a.363.363 0 0 0 .045.02l.014.005.031.011.007.001a.47.47 0 0 0 .12.017h1.693a.458.458 0 0 0 .458-.458V16.745a.458.458 0 0 0-.458-.458h-1.702a.458.458 0 0 0-.458.458v6.22l-4.793-6.47a.463.463 0 0 0-.037-.048l-.003-.004-.036-.036a.898.898 0 0 0-.025-.021l-.013-.009a.545.545 0 0 0-.024-.017l-.014-.008a.39.39 0 0 0-.04-.02c-.009-.005-.017-.01-.026-.013l-.015-.005-.028-.01c-.006 0-.011-.002-.017-.003l-.026-.006-.02-.003-.025-.003h-.024l-.016-.002h-1.693Zm11.587 0a.459.459 0 0 0-.459.458V27.22a.46.46 0 0 0 .46.459h6.742a.459.459 0 0 0 .458-.46v-1.701a.46.46 0 0 0-.458-.458h-4.582v-1.767h4.582a.459.459 0 0 0 .458-.459v-1.702a.46.46 0 0 0-.458-.458h-4.582v-1.768h4.582a.458.458 0 0 0 .458-.458v-1.702a.46.46 0 0 0-.458-.458h-6.743Z"/>
    </symbol>
    <symbol id="linkedin" fill="currentColor" viewBox="0 0 48 48">
      <path d="M39.49 39.491h-6.52v-10.21c0-2.435-.043-5.569-3.39-5.569-3.396 0-3.915 2.653-3.915 5.392V39.49h-6.52V18.494h6.259v2.87h.088a6.859 6.859 0 0 1 6.175-3.392c6.608 0 7.826 4.346 7.826 10l-.003 11.519Zm-27.7-23.867a3.783 3.783 0 1 1-.002-7.567 3.783 3.783 0 0 1 .001 7.567Zm3.259 23.867H8.523V18.494h6.526v20.997ZM42.74 2.003H5.247A3.21 3.21 0 0 0 2 5.175v37.65A3.213 3.213 0 0 0 5.247 46H42.74A3.22 3.22 0 0 0 46 42.825V5.172A3.218 3.218 0 0 0 42.74 2"/>
    </symbol>
    <symbol id="reddit" fill="currentColor" viewBox="0 0 48 48">
      <path d="M30.102 8.15A4.998 4.998 0 0 0 39.962 7a4.998 4.998 0 0 0-9.89-1.014c-4.041.434-7.197 3.862-7.197 8.017v.026c-4.394.185-8.407 1.437-11.593 3.412A7.003 7.003 0 0 0 0 22.983a7.002 7.002 0 0 0 4.032 6.344C4.264 37.46 13.12 44 24.016 44c10.896 0 19.765-6.548 19.985-14.687A7.007 7.007 0 0 0 48 22.986a7.003 7.003 0 0 0-7.002-7.005 6.963 6.963 0 0 0-4.264 1.45c-3.214-1.989-7.271-3.24-11.71-3.407v-.018a5.919 5.919 0 0 1 5.078-5.852v-.005ZM11.002 27.43c.117-2.541 1.804-4.49 3.764-4.49 1.961 0 3.46 2.059 3.343 4.6-.117 2.54-1.58 3.463-3.544 3.463-1.963 0-3.68-1.034-3.563-3.574Zm22.269-4.49c1.963 0 3.65 1.949 3.764 4.49.117 2.54-1.602 3.573-3.563 3.573-1.96 0-3.427-.921-3.544-3.464-.117-2.54 1.38-4.6 3.343-4.6Zm-2.334 10.367c.368.037.602.42.46.761a7.999 7.999 0 0 1-14.758 0 .555.555 0 0 1 .458-.761 69.155 69.155 0 0 1 6.92-.338c2.434 0 4.763.12 6.92.338Z"/>
    </symbol>

    <symbol id="bluesky" fill="currentColor" viewBox="0 0 576 512">
    <path d="M407.8 294.7c-3.3-.4-6.7-.8-10-1.3 3.4 .4 6.7 .9 10 1.3zM288 227.1C261.9 176.4 190.9 81.9 124.9 35.3 61.6-9.4 37.5-1.7 21.6 5.5 3.3 13.8 0 41.9 0 58.4S9.1 194 15 213.9c19.5 65.7 89.1 87.9 153.2 80.7 3.3-.5 6.6-.9 10-1.4-3.3 .5-6.6 1-10 1.4-93.9 14-177.3 48.2-67.9 169.9 120.3 124.6 164.8-26.7 187.7-103.4 22.9 76.7 49.2 222.5 185.6 103.4 102.4-103.4 28.1-156-65.8-169.9-3.3-.4-6.7-.8-10-1.3 3.4 .4 6.7 .9 10 1.3 64.1 7.1 133.6-15.1 153.2-80.7 5.9-19.9 15-138.9 15-155.5s-3.3-44.7-21.6-52.9c-15.8-7.1-40-14.9-103.2 29.8-66.1 46.6-137.1 141.1-163.2 191.8z"/>
    </symbol>

    <symbol id="telegram" fill="currentColor" viewBox="0 0 48 48">
      <path d="M24 1c12.703 0 23 10.297 23 23S36.703 47 24 47 1 36.703 1 24 11.297 1 24 1Zm10.935 12.035c-1.006.018-2.55.554-9.977 3.644-2.6 1.082-7.8 3.32-15.596 6.718-1.266.503-1.93.996-1.99 1.477-.116.925 1.215 1.213 2.89 1.757 1.366.444 3.203.963 4.157.984.867.019 1.834-.338 2.9-1.071 7.285-4.918 11.046-7.403 11.282-7.457.166-.037.397-.085.553.054.157.14.141.402.125.473-.133.565-6.975 6.789-7.37 7.198-1.504 1.563-3.216 2.52-.575 4.26 2.284 1.505 3.614 2.465 5.968 4.008 1.504.986 2.684 2.156 4.237 2.013.714-.066 1.453-.738 1.827-2.742.886-4.737 2.628-14.999 3.03-19.228.036-.37-.009-.845-.044-1.053-.036-.208-.11-.505-.38-.724-.321-.26-.816-.315-1.037-.31Z"/>
    </symbol>
    <symbol id="whatsapp" fill="currentColor" viewBox="0 0 48 48">
      <path fill-rule="evenodd" d="M40.297 7.684C35.974 3.376 30.224 1.002 24.098 1 11.47 1 1.197 11.225 1.192 23.792A22.66 22.66 0 0 0 4.25 35.187L1 47l12.142-3.17a22.961 22.961 0 0 0 10.945 2.774h.01c12.622 0 22.899-10.225 22.903-22.793.002-6.091-2.378-11.817-6.703-16.125v-.002Zm-16.2 35.071h-.008a19.082 19.082 0 0 1-9.69-2.64l-.695-.411-7.205 1.88 1.923-6.991-.453-.717a18.83 18.83 0 0 1-2.91-10.082c.004-10.446 8.544-18.945 19.045-18.945 5.085.003 9.865 1.975 13.459 5.557 3.594 3.58 5.572 8.341 5.57 13.403-.004 10.446-8.544 18.945-19.036 18.945v.001Zm10.441-14.189c-.572-.285-3.385-1.662-3.91-1.852-.525-.19-.906-.285-1.287.285-.381.57-1.479 1.854-1.812 2.233-.334.38-.668.427-1.24.142-.572-.285-2.416-.886-4.603-2.826-1.701-1.51-2.85-3.375-3.184-3.946-.333-.57-.035-.879.25-1.162.258-.255.573-.665.86-.998.286-.332.38-.57.572-.95.19-.38.095-.712-.047-.997-.143-.285-1.288-3.089-1.765-4.229-.465-1.11-.937-.96-1.288-.978-.333-.016-.714-.02-1.097-.02-.382 0-1.001.142-1.526.713-.525.57-2.003 1.949-2.003 4.751 0 2.802 2.05 5.512 2.337 5.892.286.38 4.036 6.133 9.776 8.6a32.94 32.94 0 0 0 3.263 1.2c1.37.434 2.618.373 3.604.227 1.1-.164 3.386-1.378 3.863-2.709.476-1.33.476-2.47.334-2.708-.143-.237-.525-.38-1.097-.666v-.002Z"/>
    </symbol>
    <symbol id="x" fill="currentColor" viewBox="0 0 48 48">
      <path d="M27.876 20.86 42.81 3.5h-3.54L26.305 18.574 15.946 3.5H4l15.663 22.795L4 44.5h3.54l13.694-15.919L32.172 44.5h11.946L27.875 20.86Zm-4.848 5.636-1.587-2.27L8.815 6.164h5.436L24.44 20.74l1.587 2.27 13.245 18.947h-5.436l-10.809-15.46v-.002Z"/>
    </symbol>
  </defs>
</svg>
